<?xml version="1.0" encoding="UTF-8"?>
<svg xmlns="http://www.w3.org/2000/svg" xmlns:xlink="http://www.w3.org/1999/xlink" width="100px" height="100px" viewBox="0 0 100 100" version="1.1">
<g id="surface1">
<path style=" stroke:none;fill-rule:nonzero;fill:rgb(0%,0%,0%);fill-opacity:1;" d="M 58.800781 24.800781 C 57.148438 25.300781 55.601562 26.351562 53.949219 28 C 51.550781 30.398438 51.550781 30.449219 49.5 38.101562 C 48.25 42.601562 43.25 47.601562 38.398438 49.199219 C 35 50.300781 30.601562 50.199219 27.148438 49 C 25.550781 48.449219 24.199219 48 24.148438 48 C 24.050781 48 24 54.300781 24 62 L 24 76 L 49.949219 76 L 50.101562 64.75 L 50.25 53.5 L 51.851562 51.898438 C 53.449219 50.300781 53.5 50.300781 59.851562 49.949219 C 68.601562 49.550781 71.699219 48 74.398438 42.75 C 77.949219 35.851562 74.199219 26.949219 66.800781 24.75 C 63.75 23.851562 61.949219 23.851562 58.800781 24.800781 Z M 58.800781 24.800781 "/>
</g>
</svg>
