<?xml version="1.0" encoding="UTF-8"?>
<svg xmlns="http://www.w3.org/2000/svg" xmlns:xlink="http://www.w3.org/1999/xlink" width="10px" height="10px" viewBox="0 0 10 10" version="1.1">
<g id="surface1">
<rect x="0" y="0" width="10" height="10" style="fill:rgb(100%,100%,100%);fill-opacity:1;stroke:none;"/>
<path style=" stroke:none;fill-rule:nonzero;fill:rgb(0%,0%,0%);fill-opacity:1;" d="M 7.003906 1.238281 C 6.003906 1.191406 5.164062 1.898438 5.023438 2.832031 C 5.015625 2.875 5.007812 2.917969 5 2.957031 C 4.777344 4.121094 3.742188 5 2.496094 5 C 2.050781 5 1.636719 4.886719 1.273438 4.691406 C 1.226562 4.667969 1.175781 4.699219 1.175781 4.75 L 1.175781 8.765625 L 5 8.765625 L 5 5.941406 C 5 5.421875 5.429688 5 5.957031 5 L 6.914062 5 C 7.996094 5 8.867188 4.117188 8.824219 3.039062 C 8.785156 2.074219 7.988281 1.28125 7.003906 1.238281 Z M 7.003906 1.238281 "/>
</g>
</svg>
