<?xml version="1.0" encoding="UTF-8"?>
<svg xmlns="http://www.w3.org/2000/svg" xmlns:xlink="http://www.w3.org/1999/xlink" width="50px" height="50px" viewBox="0 0 50 50" version="1.1">
<g id="surface1">
<rect x="0" y="0" width="50" height="50" style="fill:rgb(100%,100%,100%);fill-opacity:1;stroke:none;"/>
<path style=" stroke:none;fill-rule:nonzero;fill:rgb(0%,0%,0%);fill-opacity:1;" d="M 35.023438 6.183594 C 30.027344 5.953125 25.828125 9.492188 25.113281 14.15625 C 25.085938 14.375 25.042969 14.582031 25.007812 14.792969 C 23.894531 20.601562 18.707031 25 12.480469 25 C 10.257812 25 8.175781 24.441406 6.359375 23.464844 C 6.136719 23.347656 5.875 23.5 5.875 23.746094 L 5.875 43.828125 L 25 43.828125 L 25 29.707031 C 25 27.109375 27.140625 25 29.78125 25 L 34.5625 25 C 39.972656 25 44.328125 20.582031 44.117188 15.203125 C 43.925781 10.367188 39.9375 6.414062 35.023438 6.183594 Z M 35.023438 6.183594 "/>
</g>
</svg>
